<?xml version="1.0" standalone="no"?>
<!DOCTYPE svg PUBLIC "-//W3C//DTD SVG 20010904//EN"
 "http://www.w3.org/TR/2001/REC-SVG-20010904/DTD/svg10.dtd">
<svg version="1.0" xmlns="http://www.w3.org/2000/svg"
 width="1080.000000pt" height="1080.000000pt" viewBox="0 0 1080.000000 1080.000000"
 preserveAspectRatio="xMidYMid meet">

<g transform="translate(0.000000,1080.000000) scale(0.100000,-0.100000)"
fill="#000000" stroke="none">
<path d="M5119 8020 c-131 -21 -261 -90 -349 -187 -60 -66 -95 -123 -128 -212
-22 -58 -26 -86 -30 -238 l-4 -173 71 0 71 0 0 144 c0 208 34 302 150 410 51
47 158 106 195 106 16 0 12 -8 -22 -42 -59 -61 -100 -132 -128 -219 -22 -72
-24 -93 -31 -455 -6 -338 -5 -383 9 -411 29 -54 103 -51 127 7 8 19 10 137 8
396 l-3 369 24 60 c42 105 93 172 171 224 94 64 109 67 170 36 63 -32 138
-100 180 -163 54 -81 70 -155 70 -318 l0 -144 70 0 70 0 0 145 c0 79 -5 168
-11 197 -16 80 -81 206 -139 270 l-50 57 32 -10 c163 -46 296 -192 328 -358 6
-30 10 -210 10 -412 l0 -358 26 -20 c15 -12 34 -21 44 -21 10 0 29 9 44 21
l26 20 0 367 c0 418 -5 457 -70 590 -73 147 -209 259 -375 308 -58 17 -80 18
-315 11 -19 0 -69 2 -110 5 -41 4 -100 3 -131 -2z"/>
<path d="M3977 4710 c-180 -45 -278 -234 -201 -388 51 -103 143 -157 269 -157
79 0 165 24 165 47 0 7 -37 86 -44 95 -1 1 -20 -4 -41 -12 -154 -55 -291 73
-226 208 12 25 33 53 47 62 47 30 123 35 199 10 17 -5 24 2 43 40 16 33 20 51
12 59 -24 30 -160 51 -223 36z"/>
<path d="M4447 4710 c-57 -15 -89 -34 -133 -82 -58 -63 -78 -121 -72 -210 7
-108 54 -183 143 -231 57 -31 183 -31 241 0 99 53 149 137 148 253 0 115 -51
199 -150 248 -50 25 -125 34 -177 22z m122 -128 c48 -24 71 -73 71 -148 0
-124 -91 -188 -197 -137 -69 32 -93 140 -50 223 23 48 71 80 117 80 14 0 40
-8 59 -18z"/>
<path d="M7100 4706 c-129 -34 -220 -149 -220 -276 0 -68 49 -162 109 -206 63
-47 139 -68 217 -61 61 6 134 33 134 49 0 7 -37 87 -45 96 -1 1 -18 -5 -38
-13 -87 -36 -185 -3 -225 77 -55 108 23 219 153 219 30 0 63 -4 74 -10 32 -18
39 -13 66 38 l24 49 -34 16 c-33 16 -123 37 -154 35 -9 0 -36 -6 -61 -13z"/>
<path d="M3110 4440 l0 -270 156 0 155 0 -3 53 -3 52 -92 3 -93 3 0 49 0 49
88 3 87 3 3 53 3 52 -90 0 -91 0 0 55 0 55 96 0 95 0 -3 53 -3 52 -152 3 -153
3 0 -271z"/>
<path d="M4850 4704 c0 -18 -40 -464 -45 -496 l-5 -38 64 0 64 0 7 113 c4 61
10 132 14 157 6 45 6 45 60 -112 l54 -158 37 0 36 0 54 157 c55 157 55 157 61
113 4 -25 10 -96 14 -157 l7 -113 64 0 64 0 -5 38 c-5 38 -45 472 -45 492 0 7
-23 10 -66 8 l-67 -3 -56 -147 c-31 -82 -58 -148 -61 -148 -3 0 -30 66 -61
148 l-56 147 -67 3 c-36 2 -66 0 -66 -4z"/>
<path d="M5466 4698 c-4 -12 -46 -488 -46 -515 0 -9 18 -13 59 -13 l59 0 6 43
c3 23 9 93 12 155 4 62 10 110 13 106 3 -3 29 -72 57 -152 l52 -147 37 0 38 0
51 147 c28 82 54 148 57 148 4 0 9 -48 13 -107 4 -60 9 -127 12 -150 l6 -43
59 0 c70 0 66 -36 36 295 l-22 240 -65 3 -65 3 -60 -157 c-51 -135 -61 -154
-69 -133 -4 13 -31 83 -60 154 l-51 130 -63 3 c-44 2 -63 -1 -66 -10z"/>
<path d="M6060 4440 l0 -270 155 0 155 0 0 55 0 55 -95 0 -95 0 0 50 0 50 90
0 90 0 0 55 0 54 -87 3 -88 3 -3 53 -3 52 95 0 96 0 0 55 0 55 -155 0 -155 0
0 -270z"/>
<path d="M6440 4441 l0 -271 60 0 59 0 3 103 3 102 80 -102 80 -103 79 0 78 0
-48 58 c-27 31 -68 80 -92 109 l-43 51 31 19 c70 41 97 150 55 222 -34 58 -82
75 -222 80 l-123 3 0 -271z m216 147 c7 -7 16 -25 19 -40 10 -38 -31 -78 -80
-78 l-35 0 0 71 0 72 41 -6 c23 -3 48 -11 55 -19z"/>
<path d="M7397 4703 c-4 -3 -7 -125 -7 -270 l0 -263 155 0 155 0 0 55 0 55
-90 0 -90 0 0 50 0 50 85 0 85 0 0 55 0 55 -85 0 -85 0 0 55 0 55 90 0 90 0 0
55 0 55 -148 0 c-82 0 -152 -3 -155 -7z"/>
<path d="M3480 4360 l0 -50 105 0 105 0 0 50 0 50 -105 0 -105 0 0 -50z"/>
<path d="M4474 4061 c-39 -10 -90 -46 -105 -73 -54 -100 -14 -185 114 -242 92
-41 112 -93 44 -115 -37 -13 -80 -3 -135 29 -39 23 -37 24 -73 -44 -23 -44
-24 -43 51 -79 35 -17 64 -22 125 -22 127 0 192 45 203 141 9 82 -30 132 -142
183 -34 15 -69 35 -78 45 -17 17 -14 44 6 58 18 13 89 8 116 -7 14 -8 28 -14
32 -15 9 0 48 74 48 90 0 30 -146 66 -206 51z"/>
<path d="M5318 4057 c-197 -56 -265 -321 -119 -467 166 -165 440 -61 459 175
6 81 -16 149 -69 208 -68 78 -174 111 -271 84z m127 -121 c90 -38 110 -186 35
-269 -26 -29 -33 -32 -89 -32 -53 0 -63 4 -91 30 -76 72 -57 231 33 270 41 18
69 18 112 1z"/>
<path d="M4720 4005 l0 -55 65 0 65 0 0 -215 0 -215 60 0 60 0 0 215 0 215 65
0 65 0 0 55 0 55 -190 0 -190 0 0 -55z"/>
<path d="M5718 4054 c-5 -4 -8 -126 -8 -271 l0 -263 65 0 64 0 3 101 3 100 74
-96 c40 -53 79 -99 86 -101 6 -3 42 -4 79 -2 l67 3 -85 104 c-48 57 -86 106
-86 110 1 3 15 15 33 26 66 41 89 150 44 215 -40 60 -76 74 -212 78 -66 2
-123 1 -127 -4z m195 -105 c29 -16 37 -28 37 -61 0 -39 -32 -68 -75 -68 l-35
0 0 70 c0 68 1 70 26 70 14 0 35 -5 47 -11z"/>
<path d="M6180 3790 l0 -270 155 0 155 0 0 55 0 55 -95 0 -95 0 0 50 0 50 90
0 90 0 0 55 0 54 -87 3 -88 3 -3 53 -3 52 95 0 96 0 0 55 0 55 -155 0 -155 0
0 -270z"/>
<path d="M2790 3185 c0 -8 7 -15 16 -15 11 0 14 -5 9 -17 -4 -10 -25 -67 -48
-127 -28 -75 -46 -110 -59 -114 -10 -2 -18 -11 -18 -18 0 -10 14 -14 50 -14
38 0 50 4 50 15 0 8 -7 15 -15 15 -19 0 -19 11 -1 55 15 35 15 35 78 35 l64 0
16 -45 c17 -44 16 -45 -2 -45 -11 0 -20 -7 -20 -15 0 -11 12 -15 50 -15 36 0
50 4 50 14 0 7 -8 16 -17 18 -12 4 -35 50 -72 147 l-54 141 -38 0 c-28 0 -39
-4 -39 -15z m88 -87 c12 -35 22 -66 22 -70 0 -5 -22 -8 -50 -8 -27 0 -50 3
-50 8 0 14 45 132 51 132 3 0 15 -28 27 -62z"/>
<path d="M5650 3180 c-11 -11 -20 -33 -20 -50 0 -20 -5 -30 -15 -30 -8 0 -15
-4 -15 -10 0 -5 7 -10 15 -10 12 0 15 -16 15 -85 0 -69 -3 -85 -15 -85 -8 0
-15 -7 -15 -15 0 -11 12 -15 50 -15 38 0 50 4 50 15 0 8 -9 15 -20 15 -18 0
-20 7 -20 85 l0 85 30 0 c17 0 30 5 30 10 0 6 -13 10 -30 10 -26 0 -30 3 -30
29 0 36 22 55 55 47 27 -7 35 8 9 18 -29 11 -54 6 -74 -14z"/>
<path d="M7057 3182 c-9 -10 -17 -33 -17 -50 0 -25 -4 -32 -20 -32 -11 0 -20
-4 -20 -9 0 -5 9 -11 20 -14 18 -5 20 -14 20 -86 0 -65 -3 -81 -15 -81 -8 0
-15 -7 -15 -15 0 -11 12 -15 50 -15 38 0 50 4 50 15 0 9 -9 15 -25 15 -26 0
-26 0 -23 83 l3 82 33 3 c44 4 41 22 -4 22 -36 0 -36 1 -30 32 8 38 23 50 54
43 17 -4 23 -2 20 7 -7 21 -62 21 -81 0z"/>
<path d="M4270 3125 c0 -16 -6 -25 -15 -25 -8 0 -15 -4 -15 -10 0 -5 7 -10 15
-10 12 0 15 -16 15 -80 0 -67 3 -83 20 -100 21 -21 37 -24 64 -14 22 9 20 27
-3 21 -40 -10 -51 9 -51 93 l0 80 30 0 c17 0 30 5 30 10 0 6 -13 10 -30 10
-25 0 -30 4 -30 25 0 16 -6 25 -15 25 -9 0 -15 -9 -15 -25z"/>
<path d="M6170 3125 c0 -18 -5 -25 -20 -25 -11 0 -20 -4 -20 -9 0 -5 9 -11 20
-14 18 -5 20 -14 20 -86 0 -75 2 -82 25 -97 26 -17 75 -12 75 7 0 7 -9 9 -21
6 -13 -3 -28 2 -40 14 -17 17 -19 31 -17 87 l3 67 33 3 c43 4 41 22 -3 22 -31
0 -35 3 -35 25 0 14 -4 25 -10 25 -5 0 -10 -11 -10 -25z"/>
<path d="M7940 3125 c0 -16 -6 -25 -15 -25 -8 0 -15 -4 -15 -10 0 -5 7 -10 15
-10 12 0 15 -16 15 -80 0 -67 3 -83 20 -100 21 -21 37 -24 64 -14 22 9 20 27
-3 21 -40 -10 -51 9 -51 93 l0 80 30 0 c17 0 30 5 30 10 0 6 -13 10 -30 10
-25 0 -30 4 -30 25 0 16 -6 25 -15 25 -9 0 -15 -9 -15 -25z"/>
<path d="M3210 3090 c0 -5 7 -10 15 -10 12 0 15 -16 15 -85 0 -69 -3 -85 -15
-85 -8 0 -15 -7 -15 -15 0 -11 12 -15 45 -15 33 0 45 4 45 15 0 8 -7 15 -15
15 -12 0 -15 14 -15 69 0 72 6 85 50 96 47 11 64 -13 70 -106 4 -71 8 -84 24
-87 10 -2 23 1 29 7 9 9 6 13 -11 17 -20 6 -22 12 -22 80 0 85 -18 114 -70
114 -17 0 -39 -9 -50 -20 -11 -11 -22 -20 -25 -20 -3 0 -5 9 -5 20 0 15 -7 20
-25 20 -14 0 -25 -4 -25 -10z"/>
<path d="M3538 3084 c-36 -19 -48 -43 -48 -97 0 -34 6 -50 26 -70 42 -42 104
-46 147 -9 29 26 19 31 -22 10 -60 -29 -121 -2 -121 54 0 16 10 18 80 18 73 0
80 2 80 20 0 72 -74 111 -142 74z m94 -21 c38 -45 32 -53 -42 -53 -77 0 -88
12 -50 50 25 25 72 26 92 3z"/>
<path d="M3720 3090 c0 -5 6 -10 13 -10 7 0 27 -42 46 -101 41 -126 57 -129
86 -16 11 42 22 77 25 77 3 0 14 -35 26 -77 28 -111 44 -109 84 12 18 53 38
99 46 102 28 10 13 23 -26 23 -22 0 -40 -4 -40 -10 0 -5 5 -10 10 -10 14 0 13
-13 -11 -92 -12 -38 -25 -66 -29 -61 -4 4 -15 39 -25 77 -13 51 -15 71 -7 74
27 9 9 22 -28 22 -37 0 -55 -13 -29 -22 12 -4 -18 -158 -31 -158 -13 0 -53
154 -41 158 26 9 8 22 -29 22 -22 0 -40 -4 -40 -10z"/>
<path d="M4410 3091 c0 -5 6 -11 14 -14 7 -3 26 -38 41 -79 15 -40 35 -85 43
-99 14 -25 13 -30 -5 -60 -14 -25 -26 -34 -45 -34 -36 0 -46 -13 -15 -20 58
-15 78 14 148 219 15 44 30 71 42 74 33 9 17 22 -28 22 -44 0 -60 -12 -31 -23
12 -5 10 -19 -12 -81 -15 -42 -30 -76 -33 -76 -4 0 -20 35 -35 77 -20 54 -25
78 -16 81 27 9 10 22 -28 22 -22 0 -40 -4 -40 -9z"/>
<path d="M4680 3090 c0 -5 7 -10 15 -10 13 0 15 -22 15 -140 0 -118 -2 -140
-15 -140 -8 0 -15 -4 -15 -10 0 -5 20 -10 45 -10 25 0 45 5 45 10 0 6 -7 10
-15 10 -12 0 -15 13 -15 60 l0 61 29 -22 c23 -17 37 -20 65 -15 50 10 76 47
76 108 0 41 -5 54 -29 79 -35 35 -77 38 -115 8 l-26 -20 0 20 c0 17 -6 21 -30
21 -16 0 -30 -4 -30 -10z m176 -33 c59 -51 16 -169 -55 -152 -62 14 -84 103
-36 150 30 31 56 32 91 2z"/>
<path d="M4994 3066 c-46 -46 -48 -101 -5 -148 25 -28 36 -33 73 -33 25 0 55
8 71 18 41 27 23 38 -23 15 -35 -18 -44 -19 -71 -8 -31 13 -49 37 -49 64 0 13
15 16 85 16 52 0 85 4 85 10 0 30 -32 81 -55 90 -47 18 -75 12 -111 -24z m108
2 c9 -7 19 -23 23 -35 6 -22 4 -23 -64 -23 -80 0 -91 13 -45 49 30 24 63 27
86 9z"/>
<path d="M5405 3091 c-80 -35 -83 -156 -5 -196 39 -20 68 -19 106 4 59 36 66
129 14 176 -22 19 -86 29 -115 16z m96 -40 c36 -37 38 -79 6 -117 -64 -74
-167 9 -126 100 23 50 78 58 120 17z"/>
<path d="M5940 3080 c-38 -38 -17 -81 45 -95 36 -9 75 -32 75 -45 0 -17 -32
-40 -56 -40 -14 0 -36 11 -50 25 -14 14 -27 25 -29 25 -3 0 -4 -17 -4 -37 1
-21 3 -30 6 -20 5 21 12 21 37 2 29 -22 71 -18 103 9 24 21 26 27 16 49 -9 18
-27 30 -70 44 -63 20 -80 46 -47 70 28 20 61 15 82 -12 26 -33 32 -32 32 10 0
33 -14 48 -22 24 -3 -9 -9 -9 -25 0 -33 17 -71 13 -93 -9z"/>
<path d="M6373 3090 c-51 -21 -73 -112 -40 -163 35 -54 122 -59 168 -11 19 20
24 37 24 76 0 43 -4 53 -33 79 -34 30 -75 37 -119 19z m86 -25 c88 -45 24
-196 -66 -153 -58 28 -67 108 -16 148 31 24 45 25 82 5z"/>
<path d="M6570 3090 c0 -5 7 -10 15 -10 12 0 15 -16 15 -85 0 -69 -3 -85 -15
-85 -8 0 -15 -7 -15 -15 0 -11 12 -15 45 -15 33 0 45 4 45 15 0 8 -7 15 -15
15 -11 0 -15 12 -15 46 0 69 30 113 78 114 13 0 22 6 22 15 0 28 -51 10 -82
-29 -17 -21 -18 -21 -18 12 0 29 -3 32 -30 32 -16 0 -30 -4 -30 -10z"/>
<path d="M6800 3073 c-76 -68 -28 -193 73 -193 29 0 90 38 82 51 -5 7 -13 4
-25 -6 -10 -9 -35 -17 -56 -18 -28 -1 -42 5 -60 27 -42 49 -34 56 62 56 l87 0
-7 33 c-14 74 -99 101 -156 50z m110 -13 c38 -38 27 -50 -50 -50 -77 0 -84 7
-45 45 29 30 68 32 95 5z"/>
<path d="M7180 3090 c0 -5 7 -10 15 -10 12 0 15 -16 15 -85 0 -69 -3 -85 -15
-85 -8 0 -15 -7 -15 -15 0 -11 12 -15 45 -15 33 0 45 4 45 15 0 8 -7 15 -15
15 -12 0 -15 13 -15 55 0 46 4 60 25 80 13 14 36 25 50 25 16 0 25 6 25 16 0
23 -49 10 -77 -21 -28 -32 -33 -31 -33 5 0 25 -4 30 -25 30 -14 0 -25 -4 -25
-10z"/>
<path d="M7418 3084 c-35 -18 -48 -43 -48 -88 0 -51 18 -83 57 -101 94 -45
186 51 142 148 -23 51 -97 71 -151 41z m115 -35 c17 -21 23 -73 11 -104 -10
-24 -60 -46 -89 -39 -90 22 -62 188 28 170 18 -3 40 -16 50 -27z"/>
<path d="M7630 3091 c0 -5 7 -11 15 -15 12 -4 15 -24 15 -86 0 -64 -3 -80 -15
-80 -8 0 -15 -7 -15 -15 0 -11 11 -15 39 -15 42 0 64 16 37 26 -12 5 -16 22
-16 75 0 59 3 70 22 83 59 41 88 10 88 -94 0 -62 3 -79 16 -84 27 -10 44 -7
44 9 0 8 -7 15 -15 15 -12 0 -15 15 -15 75 0 62 -4 79 -20 95 -26 26 -70 26
-104 -1 l-26 -20 0 20 c0 16 -6 21 -25 21 -14 0 -25 -4 -25 -9z"/>
<path d="M8082 2898 c5 -15 28 -18 29 -3 0 6 -7 12 -17 13 -10 3 -15 -1 -12
-10z"/>
</g>
</svg>
